<?xml version="1.0" encoding="UTF-8"?>
<!DOCTYPE svg
PUBLIC "-//W3C//DTD SVG 1.1//EN"
       "http://www.w3.org/Graphics/SVG/1.1/DTD/svg11.dtd">
<svg viewBox="126 111 1170 750" width="1044px" height="639px" xmlns="http://www.w3.org/2000/svg" version="1.1">
   <line x1="298" y1="635" x2="308" y2="635" style="stroke:#0bf;stroke-width:1;"/>
   <line x1="1027" y1="354" x2="1037" y2="354" style="stroke:#0bf;stroke-width:1;"/>
   <line x1="308" y1="635" x2="1027" y2="354" style="stroke:#0bf;stroke-width:1;"/>
   <line x1="305.5" y1="635" x2="301.96446609407" y2="638.53553390593" style="stroke:#0bf;stroke-width:2;"/>
   <line x1="305.5" y1="635" x2="301.96446609407" y2="631.46446609407" style="stroke:#0bf;stroke-width:2;"/>
   <line x1="1032" y1="354" x2="1028.4644660941" y2="357.53553390593" style="stroke:#0bf;stroke-width:2;"/>
   <line x1="1032" y1="354" x2="1028.4644660941" y2="350.46446609407" style="stroke:#0bf;stroke-width:2;"/>
   <line x1="298" y1="615" x2="308" y2="615" style="stroke:#c00;stroke-width:1;"/>
   <line x1="484" y1="605" x2="494" y2="605" style="stroke:#c00;stroke-width:1;"/>
   <line x1="308" y1="615" x2="484" y2="605" style="stroke:#c00;stroke-width:1;"/>
   <line x1="305.5" y1="615" x2="301.96446609407" y2="618.53553390593" style="stroke:#c00;stroke-width:2;"/>
   <line x1="305.5" y1="615" x2="301.96446609407" y2="611.46446609407" style="stroke:#c00;stroke-width:2;"/>
   <line x1="489" y1="605" x2="485.46446609407" y2="608.53553390593" style="stroke:#c00;stroke-width:2;"/>
   <line x1="489" y1="605" x2="485.46446609407" y2="601.46446609407" style="stroke:#c00;stroke-width:2;"/>
   <line x1="240" y1="433" x2="250" y2="433" style="stroke:#c00;stroke-width:1;"/>
   <line x1="484" y1="605" x2="494" y2="605" style="stroke:#c00;stroke-width:1;"/>
   <line x1="250" y1="433" x2="484" y2="605" style="stroke:#c00;stroke-width:1;"/>
   <line x1="247.5" y1="433" x2="243.96446609407" y2="436.53553390593" style="stroke:#c00;stroke-width:2;"/>
   <line x1="247.5" y1="433" x2="243.96446609407" y2="429.46446609407" style="stroke:#c00;stroke-width:2;"/>
   <line x1="489" y1="605" x2="485.46446609407" y2="608.53553390593" style="stroke:#c00;stroke-width:2;"/>
   <line x1="489" y1="605" x2="485.46446609407" y2="601.46446609407" style="stroke:#c00;stroke-width:2;"/>
   <line x1="240" y1="453" x2="250" y2="453" style="stroke:#0b0;stroke-width:1;"/>
   <line x1="1027" y1="354" x2="1037" y2="354" style="stroke:#0b0;stroke-width:1;"/>
   <line x1="250" y1="453" x2="1027" y2="354" style="stroke:#0b0;stroke-width:1;"/>
   <line x1="247.5" y1="453" x2="243.96446609407" y2="456.53553390593" style="stroke:#0b0;stroke-width:2;"/>
   <line x1="247.5" y1="453" x2="243.96446609407" y2="449.46446609407" style="stroke:#0b0;stroke-width:2;"/>
   <line x1="1032" y1="354" x2="1028.4644660941" y2="357.53553390593" style="stroke:#0b0;stroke-width:2;"/>
   <line x1="1032" y1="354" x2="1028.4644660941" y2="350.46446609407" style="stroke:#0b0;stroke-width:2;"/>
   <line x1="741" y1="489" x2="731" y2="489" style="stroke:#333;stroke-width:1;"/>
   <line x1="616" y1="605" x2="606" y2="605" style="stroke:#333;stroke-width:1;"/>
   <line x1="731" y1="489" x2="616" y2="605" style="stroke:#333;stroke-width:1;"/>
   <line x1="733.5" y1="489" x2="737.03553390593" y2="492.53553390593" style="stroke:#333;stroke-width:2;"/>
   <line x1="733.5" y1="489" x2="737.03553390593" y2="485.46446609407" style="stroke:#333;stroke-width:2;"/>
   <line x1="611" y1="605" x2="614.53553390593" y2="608.53553390593" style="stroke:#333;stroke-width:2;"/>
   <line x1="611" y1="605" x2="614.53553390593" y2="601.46446609407" style="stroke:#333;stroke-width:2;"/>
   <line x1="741" y1="509" x2="731" y2="509" style="stroke:#b0b;stroke-width:1;"/>
   <line x1="732" y1="187" x2="722" y2="187" style="stroke:#b0b;stroke-width:1;"/>
   <line x1="731" y1="509" x2="732" y2="187" style="stroke:#b0b;stroke-width:1;"/>
   <line x1="733.5" y1="509" x2="737.03553390593" y2="512.53553390593" style="stroke:#b0b;stroke-width:2;"/>
   <line x1="733.5" y1="509" x2="737.03553390593" y2="505.46446609407" style="stroke:#b0b;stroke-width:2;"/>
   <line x1="727" y1="187" x2="730.53553390593" y2="190.53553390593" style="stroke:#b0b;stroke-width:2;"/>
   <line x1="727" y1="187" x2="730.53553390593" y2="183.46446609407" style="stroke:#b0b;stroke-width:2;"/>
   <line x1="833" y1="704" x2="843" y2="704" style="stroke:#bbb;stroke-width:1;"/>
   <line x1="1027" y1="354" x2="1037" y2="354" style="stroke:#bbb;stroke-width:1;"/>
   <line x1="843" y1="704" x2="1027" y2="354" style="stroke:#bbb;stroke-width:1;"/>
   <line x1="840.5" y1="704" x2="836.96446609407" y2="707.53553390593" style="stroke:#bbb;stroke-width:2;"/>
   <line x1="840.5" y1="704" x2="836.96446609407" y2="700.46446609407" style="stroke:#bbb;stroke-width:2;"/>
   <line x1="1032" y1="354" x2="1028.4644660941" y2="357.53553390593" style="stroke:#bbb;stroke-width:2;"/>
   <line x1="1032" y1="354" x2="1028.4644660941" y2="350.46446609407" style="stroke:#bbb;stroke-width:2;"/>
   <line x1="776" y1="684" x2="766" y2="684" style="stroke:#bbb;stroke-width:1;"/>
   <line x1="616" y1="605" x2="606" y2="605" style="stroke:#bbb;stroke-width:1;"/>
   <line x1="766" y1="684" x2="616" y2="605" style="stroke:#bbb;stroke-width:1;"/>
   <line x1="768.5" y1="684" x2="772.03553390593" y2="687.53553390593" style="stroke:#bbb;stroke-width:2;"/>
   <line x1="768.5" y1="684" x2="772.03553390593" y2="680.46446609407" style="stroke:#bbb;stroke-width:2;"/>
   <line x1="611" y1="605" x2="614.53553390593" y2="608.53553390593" style="stroke:#bbb;stroke-width:2;"/>
   <line x1="611" y1="605" x2="614.53553390593" y2="601.46446609407" style="stroke:#bbb;stroke-width:2;"/>
   <rect width="119" height="20" x="603" y="157" style="fill:#007;stroke:black;"/>
   <text width="119" height="20" x="608" y="171" style="fill:#fff;" font-family="Arial" font-size="16px"> artist</text>
   <rect width="119" height="20" x="603" y="177" style="fill:#aea;stroke:black;"/>
   <text width="119" height="20" x="608" y="191" style="fill:black;" font-family="Arial" font-size="16px">artistID</text>
   <rect width="119" height="20" x="603" y="197" style="fill:none;stroke:black;"/>
   <text width="119" height="20" x="608" y="211" style="fill:black;" font-family="Arial" font-size="16px">firstName</text>
   <rect width="119" height="20" x="603" y="217" style="fill:none;stroke:black;"/>
   <text width="119" height="20" x="608" y="231" style="fill:black;" font-family="Arial" font-size="16px">lastName</text>
   <rect width="119" height="20" x="603" y="237" style="fill:none;stroke:black;"/>
   <text width="119" height="20" x="608" y="251" style="fill:black;" font-family="Arial" font-size="16px">biography</text>
   <rect width="119" height="20" x="603" y="257" style="fill:none;stroke:black;"/>
   <text width="119" height="20" x="608" y="271" style="fill:black;" font-family="Arial" font-size="16px">country</text>
   <rect width="119" height="20" x="603" y="277" style="fill:none;stroke:black;"/>
   <text width="119" height="20" x="608" y="291" style="fill:black;" font-family="Arial" font-size="16px">artistPhotoURL</text>
   <rect width="119" height="20" x="603" y="297" style="fill:none;stroke:black;"/>
   <text width="119" height="20" x="608" y="311" style="fill:black;" font-family="Arial" font-size="16px">website</text>
   <rect width="118" height="20" x="1037" y="324" style="fill:#007;stroke:black;"/>
   <text width="118" height="20" x="1042" y="338" style="fill:#fff;" font-family="Arial" font-size="16px"> artwork</text>
   <rect width="118" height="20" x="1037" y="344" style="fill:#aea;stroke:black;"/>
   <text width="118" height="20" x="1042" y="358" style="fill:black;" font-family="Arial" font-size="16px">artID</text>
   <rect width="118" height="20" x="1037" y="364" style="fill:none;stroke:black;"/>
   <text width="118" height="20" x="1042" y="378" style="fill:black;" font-family="Arial" font-size="16px">artName</text>
   <rect width="118" height="20" x="1037" y="384" style="fill:none;stroke:black;"/>
   <text width="118" height="20" x="1042" y="398" style="fill:black;" font-family="Arial" font-size="16px">artistStatement</text>
   <rect width="118" height="20" x="1037" y="404" style="fill:none;stroke:black;"/>
   <text width="118" height="20" x="1042" y="418" style="fill:black;" font-family="Arial" font-size="16px">type</text>
   <rect width="118" height="20" x="1037" y="424" style="fill:none;stroke:black;"/>
   <text width="118" height="20" x="1042" y="438" style="fill:black;" font-family="Arial" font-size="16px">status</text>
   <rect width="118" height="20" x="1037" y="444" style="fill:none;stroke:black;"/>
   <text width="118" height="20" x="1042" y="458" style="fill:black;" font-family="Arial" font-size="16px">siteName</text>
   <rect width="118" height="20" x="1037" y="464" style="fill:none;stroke:black;"/>
   <text width="118" height="20" x="1042" y="478" style="fill:black;" font-family="Arial" font-size="16px">siteAddress</text>
   <rect width="118" height="20" x="1037" y="484" style="fill:none;stroke:black;"/>
   <text width="118" height="20" x="1042" y="498" style="fill:black;" font-family="Arial" font-size="16px">material</text>
   <rect width="118" height="20" x="1037" y="504" style="fill:none;stroke:black;"/>
   <text width="118" height="20" x="1042" y="518" style="fill:black;" font-family="Arial" font-size="16px">photoURL</text>
   <rect width="118" height="20" x="1037" y="524" style="fill:none;stroke:black;"/>
   <text width="118" height="20" x="1042" y="538" style="fill:black;" font-family="Arial" font-size="16px">ownership</text>
   <rect width="118" height="20" x="1037" y="544" style="fill:none;stroke:black;"/>
   <text width="118" height="20" x="1042" y="558" style="fill:black;" font-family="Arial" font-size="16px">neighborhood</text>
   <rect width="118" height="20" x="1037" y="564" style="fill:none;stroke:black;"/>
   <text width="118" height="20" x="1042" y="578" style="fill:black;" font-family="Arial" font-size="16px">locationOnSite</text>
   <rect width="118" height="20" x="1037" y="584" style="fill:none;stroke:black;"/>
   <text width="118" height="20" x="1042" y="598" style="fill:black;" font-family="Arial" font-size="16px">geom</text>
   <rect width="118" height="20" x="1037" y="604" style="fill:none;stroke:black;"/>
   <text width="118" height="20" x="1042" y="618" style="fill:black;" font-family="Arial" font-size="16px">description</text>
   <rect width="118" height="20" x="1037" y="624" style="fill:none;stroke:black;"/>
   <text width="118" height="20" x="1042" y="638" style="fill:black;" font-family="Arial" font-size="16px">artistID</text>
   <rect width="118" height="20" x="1037" y="644" style="fill:none;stroke:black;"/>
   <text width="118" height="20" x="1042" y="658" style="fill:black;" font-family="Arial" font-size="16px">year</text>
   <rect width="107" height="20" x="191" y="565" style="fill:#007;stroke:black;"/>
   <text width="107" height="20" x="196" y="579" style="fill:#fff;" font-family="Arial" font-size="16px"> comment</text>
   <rect width="107" height="20" x="191" y="585" style="fill:#aea;stroke:black;"/>
   <text width="107" height="20" x="196" y="599" style="fill:black;" font-family="Arial" font-size="16px">commentID</text>
   <rect width="107" height="20" x="191" y="605" style="fill:none;stroke:black;"/>
   <text width="107" height="20" x="196" y="619" style="fill:black;" font-family="Arial" font-size="16px">userID</text>
   <rect width="107" height="20" x="191" y="625" style="fill:none;stroke:black;"/>
   <text width="107" height="20" x="196" y="639" style="fill:black;" font-family="Arial" font-size="16px">artID</text>
   <rect width="107" height="20" x="191" y="645" style="fill:none;stroke:black;"/>
   <text width="107" height="20" x="196" y="659" style="fill:black;" font-family="Arial" font-size="16px">date</text>
   <rect width="107" height="20" x="191" y="665" style="fill:none;stroke:black;"/>
   <text width="107" height="20" x="196" y="679" style="fill:black;" font-family="Arial" font-size="16px">commentText</text>
   <rect width="99" height="20" x="141" y="383" style="fill:#007;stroke:black;"/>
   <text width="99" height="20" x="146" y="397" style="fill:#fff;" font-family="Arial" font-size="16px"> favouriteslist</text>
   <rect width="99" height="20" x="141" y="403" style="fill:#aea;stroke:black;"/>
   <text width="99" height="20" x="146" y="417" style="fill:black;" font-family="Arial" font-size="16px">favID</text>
   <rect width="99" height="20" x="141" y="423" style="fill:none;stroke:black;"/>
   <text width="99" height="20" x="146" y="437" style="fill:black;" font-family="Arial" font-size="16px">userID</text>
   <rect width="99" height="20" x="141" y="443" style="fill:none;stroke:black;"/>
   <text width="99" height="20" x="146" y="457" style="fill:black;" font-family="Arial" font-size="16px">artID</text>
   <rect width="88" height="20" x="741" y="439" style="fill:#007;stroke:black;"/>
   <text width="88" height="20" x="746" y="453" style="fill:#fff;" font-family="Arial" font-size="16px"> followinglist</text>
   <rect width="88" height="20" x="741" y="459" style="fill:#aea;stroke:black;"/>
   <text width="88" height="20" x="746" y="473" style="fill:black;" font-family="Arial" font-size="16px">followID</text>
   <rect width="88" height="20" x="741" y="479" style="fill:none;stroke:black;"/>
   <text width="88" height="20" x="746" y="493" style="fill:black;" font-family="Arial" font-size="16px">userID</text>
   <rect width="88" height="20" x="741" y="499" style="fill:none;stroke:black;"/>
   <text width="88" height="20" x="746" y="513" style="fill:black;" font-family="Arial" font-size="16px">artistID</text>
   <rect width="112" height="20" x="494" y="575" style="fill:#007;stroke:black;"/>
   <text width="112" height="20" x="499" y="589" style="fill:#fff;" font-family="Arial" font-size="16px"> member</text>
   <rect width="112" height="20" x="494" y="595" style="fill:#aea;stroke:black;"/>
   <text width="112" height="20" x="499" y="609" style="fill:black;" font-family="Arial" font-size="16px">userID</text>
   <rect width="112" height="20" x="494" y="615" style="fill:none;stroke:black;"/>
   <text width="112" height="20" x="499" y="629" style="fill:black;" font-family="Arial" font-size="16px">username</text>
   <rect width="112" height="20" x="494" y="635" style="fill:none;stroke:black;"/>
   <text width="112" height="20" x="499" y="649" style="fill:black;" font-family="Arial" font-size="16px">password</text>
   <rect width="112" height="20" x="494" y="655" style="fill:none;stroke:black;"/>
   <text width="112" height="20" x="499" y="669" style="fill:black;" font-family="Arial" font-size="16px">name</text>
   <rect width="112" height="20" x="494" y="675" style="fill:none;stroke:black;"/>
   <text width="112" height="20" x="499" y="689" style="fill:black;" font-family="Arial" font-size="16px">phoneNumber</text>
   <rect width="112" height="20" x="494" y="695" style="fill:none;stroke:black;"/>
   <text width="112" height="20" x="499" y="709" style="fill:black;" font-family="Arial" font-size="16px">profilePhoto</text>
   <rect width="112" height="20" x="494" y="715" style="fill:none;stroke:black;"/>
   <text width="112" height="20" x="499" y="729" style="fill:black;" font-family="Arial" font-size="16px">email</text>
   <rect width="115" height="20" x="835" y="126" style="fill:#007;stroke:black;"/>
   <text width="115" height="20" x="840" y="140" style="fill:#fff;" font-family="Arial" font-size="16px"> membersetting</text>
   <rect width="115" height="20" x="835" y="146" style="fill:#aea;stroke:black;"/>
   <text width="115" height="20" x="840" y="160" style="fill:black;" font-family="Arial" font-size="16px">settingID</text>
   <rect width="115" height="20" x="835" y="166" style="fill:none;stroke:black;"/>
   <text width="115" height="20" x="840" y="180" style="fill:black;" font-family="Arial" font-size="16px">location</text>
   <rect width="115" height="20" x="835" y="186" style="fill:none;stroke:black;"/>
   <text width="115" height="20" x="840" y="200" style="fill:black;" font-family="Arial" font-size="16px">type</text>
   <rect width="115" height="20" x="835" y="206" style="fill:none;stroke:black;"/>
   <text width="115" height="20" x="840" y="220" style="fill:black;" font-family="Arial" font-size="16px">material</text>
   <rect width="115" height="20" x="835" y="226" style="fill:none;stroke:black;"/>
   <text width="115" height="20" x="840" y="240" style="fill:black;" font-family="Arial" font-size="16px">userID</text>
   <rect width="57" height="20" x="776" y="634" style="fill:#007;stroke:black;"/>
   <text width="57" height="20" x="781" y="648" style="fill:#fff;" font-family="Arial" font-size="16px"> rating</text>
   <rect width="57" height="20" x="776" y="654" style="fill:#aea;stroke:black;"/>
   <text width="57" height="20" x="781" y="668" style="fill:black;" font-family="Arial" font-size="16px">rateID</text>
   <rect width="57" height="20" x="776" y="674" style="fill:none;stroke:black;"/>
   <text width="57" height="20" x="781" y="688" style="fill:black;" font-family="Arial" font-size="16px">userID</text>
   <rect width="57" height="20" x="776" y="694" style="fill:none;stroke:black;"/>
   <text width="57" height="20" x="781" y="708" style="fill:black;" font-family="Arial" font-size="16px">artID</text>
   <rect width="57" height="20" x="776" y="714" style="fill:none;stroke:black;"/>
   <text width="57" height="20" x="781" y="728" style="fill:black;" font-family="Arial" font-size="16px">score</text>
</svg>
